<svg width="496" height="5" fill="none" xmlns="http://www.w3.org/2000/svg" preserveAspectRatio="none"><path d="M496 .66c-.326-.124-.454-.221-.587-.221-12.192-.162-24.384-.37-36.581-.444l-1.844.01-2.232.036-7.173.12c-4.781.093-9.558.185-14.34.18-16.709-.008-33.419-.29-50.124-.23-11.702.041-23.432.845-35.099.6-15.721-.328-31.425-.235-47.133-.277-5.853-.014-11.703.18-17.556.217l-30.856.111c-2.713.014-5.421.139-8.134.162-4.843.037-9.691.102-14.53.028C223.529.855 217.257.49 210.984.49c-11.429-.01-22.858.217-34.292.25-10.719.032-21.394.498-32.087.771-14.106.356-28.262.61-42.399-.139-5.386-.286-10.847-.217-16.273-.194-14.715.06-29.453-.064-44.138.347-3.312.092-6.625.125-9.934.12-6.303-.014-12.593-.518-18.892-.314-2.051.064-4.103.148-6.154.175-.803.01-1.605-.138-2.408-.157C3.18 1.322 1.959 1.34.706 1.34.406 2.163.18 2.796 0 3.29.26 4.455 1.01 4.773 1.84 4.89c.648.092 1.34.171 1.971.037 6.105-1.29 12.307-.823 18.452-.901 2.514-.033 5.029-.088 7.543-.162l1.883-.06 3.503-.065 7.331-.138c9.77-.19 19.541-.393 29.317-.527 12.554-.171 25.134.194 37.701.328 3.282.037 6.604.31 9.837.125 17.812-1.017 35.669-.781 53.525-.781 23.291 0 46.586-.037 69.876-.134 13.428-.056 26.851-.282 40.278-.388 7.001-.056 14.001.046 21.002-.033 4.274-.046 8.535-.383 12.805-.434 6.56-.074 13.128.023 19.691-.023 17.001-.12 33.997-.36 50.993-.402 12.417-.033 24.91-.236 37.239.388 6.458.328 12.867.416 19.263.347 3.198-.037 6.392-.111 9.59-.218l1.2-.041.6-.023.211-.01.155-.009 1.235-.097c.82-.074 1.645-.143 2.47-.217 3.211-.305 6.462-.203 9.691-.282L480.874.91c1.394-.023 2.801-.074 4.182.083 3.613.412 7.177-.027 10.944-.332z" fill="#1D4351"/></svg>