<svg viewBox="0 0 591 437" fill="none" xmlns="http://www.w3.org/2000/svg" preserveAspectRatio="none"><path d="M590.82 251.427c-.993-2.634-10.033-3.141-13.41-4.762 2.483-.81 5.563-1.216 7.847-2.127 2.98-1.216 2.682-2.837 2.682-4.661 0-4.964-1.589-9.827-1.788-14.792-.397-9.523-1.39-18.945-.894-28.469.398-9.321-.298-18.743 1.49-27.962.298-2.33.795-4.661 1.59-6.89.794-1.925 2.88-2.938-.894-3.647-2.782-.608-6.557-.608-8.543-1.925-1.292-.912-3.676-3.647-1.788-4.559 1.887-.81 8.741-.304 9.933-2.026.497-.709-.894-2.33-.993-3.04-.199-1.418-.199-2.836-.099-4.153.099-2.635 1.589-4.154-3.279-5.066-3.576-.608-7.549-1.013-10.231-2.533 3.278-.709 6.655-1.317 9.934-1.925 4.172-.81 3.973-.709 4.072-3.951a53.084 53.084 0 0 0-1.192-13.677c-1.788-8.612.1-16.92.994-25.531.397-4.053 1.092-8.105 1.39-12.26.298-4.356 1.788-9.118-.794-13.272a11.908 11.908 0 0 1-1.49-5.166c-.298-1.014-.298-2.027-.199-3.04.099-.608 1.192-1.722.993-2.33-.596-1.52-6.357-2.735-6.357-4.255.198-1.52 1.092-3.04 2.384-4.053 3.477-2.735 2.384-8.51 2.682-12.157.199-2.634.397-5.37.497-8.004h1.192V4.729c-8.345-.406-16.689-.811-24.934-.71h-20.662c-1.092 0-3.775-.608-4.768 0-1.788 1.013-1.589 2.23-1.887 4.66-.1.811-.199 2.635-.398 4.458h-3.874c-.298-1.418-.596-2.735-1.291-3.647-1.589-2.33-2.483-1.62-5.066-.608-2.98 1.216-2.98 3.04-5.861.912-1.292-1.013-2.682-2.026-4.172-2.837-1.59-.709-3.974-.202-5.364-1.215-2.682-1.824-1.49-3.141-4.769-3.141-3.377 0-6.258-1.216-9.536-1.52-7.152-.608-14.205.81-21.456 1.216-5.365.203-10.629.81-15.994 1.418-6.158.81-12.218.203-18.278.608-3.178.203-4.47 1.216-6.953 3.445a12.668 12.668 0 0 1-7.351 3.04c-3.179.506-6.457.506-9.636-.102-1.49-.405-3.079-.71-4.668-.81-1.192 0-3.278.911-4.371 0-1.987-1.622-.994-4.762-3.576-5.775-2.583-1.014-6.259.405-8.941.405-6.754 0-13.013-3.647-19.867-3.14a81.12 81.12 0 0 1-17.185.303 46.37 46.37 0 0 1-1.589-.304v-.304c-2.086 0-4.073 0-6.159-.202-2.086-.102-5.166-1.317-7.153-.71-3.377 1.014-4.271 9.119-6.158 12.968h-.596c-.994-2.33-1.49-5.166-2.682-7.294-1.689-3.04-3.875-2.736-6.557-2.736-6.953 0-13.609 1.622-20.463 1.824-13.112.405-26.225 1.419-39.337.912-12.815-.405-25.927.304-38.741-1.52-3.179-.304-6.358-.81-9.437-1.62-2.682-.811-3.974-2.939-5.066.911-.795 2.837-.795 6.687-2.683 8.713a8.041 8.041 0 0 1-.894.81h-5.562c-.596-2.634-.298-8.003-2.384-9.118-.994-.506-3.179.912-4.173 1.013-1.887.203-3.874.203-5.761.102-3.576-.102-5.762-1.52-6.954 3.343-.397 1.52-.695 3.04-1.092 4.56h-3.974c-.397-1.42-.695-2.838-1.093-4.256-1.092-4.255-.993-4.052-5.463-4.154a97.989 97.989 0 0 0-18.874 1.216c-11.92 1.824-23.443-.101-35.364-1.013-5.662-.405-11.225-1.115-16.887-1.419-6.06-.304-12.516-1.823-18.278.81a21.523 21.523 0 0 1-7.152 1.52c-1.39.305-2.781.305-4.172.203-.894-.101-2.384-1.215-3.179-1.013-2.086.608-3.874 6.484-5.86 6.484-2.186-.202-4.173-1.114-5.563-2.431-3.875-3.546-11.822-2.432-16.788-2.736-4.967-.202-9.835-.405-14.802-.709v-.507H4.637v.102H4.24c-.894 0-2.285-.203-3.775-.405v20.566h3.477v12.766c0 .81-.596 2.735 0 3.444.993 1.317 2.185 1.115 4.57 1.419 1.986.202 9.436.405 10.43 1.52-1.788 1.52-7.351 1.316-9.636 2.532-2.285 1.216-1.59 1.824-.596 3.648 1.192 2.127 2.98 2.127.894 4.255-.993.912-1.987 1.925-2.781 3.04-.696 1.114-.199 2.836-1.192 3.849-1.788 1.925-3.08 1.013-3.08 3.445 0 2.431-1.192 4.559-1.49 6.889-.596 5.167.795 10.334 1.192 15.501.199 3.85.795 7.7 1.39 11.55.796 4.457.2 8.814.597 13.272.199 2.33 1.192 3.242 3.377 4.964 1.689 1.419 2.782 3.242 2.98 5.268.497 2.331.497 4.661-.099 6.991-.397 1.114-.695 2.229-.795 3.343 0 .912.894 2.432 0 3.141-1.589 1.418-4.668.709-5.662 2.533-.993 1.824.398 4.559.398 6.484 0 4.863-3.577 9.422-3.08 14.387a43.68 43.68 0 0 1 .298 12.461l-.298 1.216H1.06c0 1.52 0 2.938-.199 4.458-.099 1.519-1.29 3.748-.695 5.167.993 2.634 10.033 3.14 13.41 4.761-2.483.811-5.562 1.216-7.847 2.128-2.98 1.216-2.682 2.837-2.682 4.66 0 4.965 1.59 9.828 1.788 14.792.397 9.524 1.39 18.946.894 28.469-.397 9.321.298 18.743-1.49 27.963-.298 2.33-.795 4.66-1.59 6.889-.794 1.925-2.88 2.938.895 3.647 2.781.608 6.556.608 8.542 1.925 1.292.912 3.676 3.648 1.788 4.559-1.887.811-8.741.304-9.933 2.027-.497.709.894 2.33.993 3.039.199 1.418.199 2.837.1 4.154-.1 2.634-1.49 4.154 3.278 5.066 3.576.608 7.55 1.013 10.231 2.532-3.278.71-6.655 1.318-9.933 1.925-4.172.811-3.974.71-4.073 3.952a53.126 53.126 0 0 0 1.192 13.677c1.788 8.612-.1 16.919-.993 25.531-.398 4.053-1.093 8.105-1.391 12.259-.298 4.356-1.788 9.118.795 13.272a11.911 11.911 0 0 1 1.49 5.167c.298 1.013.298 2.026.198 3.039-.1.608-1.192 1.723-.993 2.331.596 1.519 6.357 2.735 6.357 4.255-.198 1.519-1.092 3.039-2.384 4.052-3.476 2.736-2.384 8.511-2.682 12.158-.298 3.546-.496 6.99-.695 10.536H.464v20.567c8.344.405 16.689.811 24.933.709H46.06c1.092 0 3.774.608 4.768 0 1.788-1.013 1.589-2.229 1.887-4.66.298-2.026.497-9.625 2.086-10.638 2.086 1.824 1.788 7.497 3.477 9.827 1.689 2.331 2.483 1.621 5.066.608 2.98-1.215 2.98-3.039 5.86-.912 1.292 1.014 2.683 2.027 4.173 2.837 1.59.709 3.974.203 5.364 1.216 2.682 1.824 1.49 3.141 4.768 3.141 3.378 0 6.258 1.215 9.537 1.519 7.152.608 14.205-.81 21.456-1.215 5.364-.203 10.629-.811 15.993-1.419 6.159-.81 12.219-.202 18.278-.608 3.179-.202 4.47-1.215 6.954-3.444a12.664 12.664 0 0 1 7.351-3.04c3.178-.506 6.457-.506 9.635.102 1.49.405 3.08.709 4.669.81 1.192 0 3.278-.912 4.371 0 1.987 1.621.993 4.762 3.576 5.775 2.583 1.013 6.258-.405 8.94-.405 6.755 0 13.013 3.647 19.868 3.14a81.103 81.103 0 0 1 17.185-.303c.596.101 1.093.202 1.589.303v.406c2.086 0 4.073 0 6.159.202 2.086.102 5.166 1.317 7.152.71 3.576-1.014 4.371-10.233 6.556-13.678 1.093 2.533 1.689 5.674 2.981 8.004 1.688 3.039 3.874 2.735 6.556 2.735 6.953 0 13.609-1.621 20.463-1.823 13.112-.405 26.225-1.419 39.337-.912 12.815.405 25.927-.304 38.741 1.52 3.179.304 6.358.81 9.437 1.621 2.682.81 3.974 2.938 5.067-.912.794-2.837.794-6.687 2.682-8.713 1.192-1.317 5.066-3.749 6.258-1.824 1.192 1.925.397 8.916 2.781 10.132.994.506 3.179-.912 4.172-1.013 1.888-.203 3.875-.203 5.762-.102 3.576.101 5.761 1.52 6.953-3.343.894-3.647 1.49-7.7 3.477-10.435.894 3.343 1.788 6.788 2.682 10.131 1.093 4.255.994 4.052 5.464 4.154a98.055 98.055 0 0 0 18.874-1.216c11.92-1.824 23.443.101 35.363 1.013 5.663.405 11.225 1.115 16.888 1.419 6.059.303 12.516 1.823 18.277-.811a21.538 21.538 0 0 1 7.153-1.52c1.39-.304 2.781-.304 4.172-.202.894.101 2.384 1.215 3.179 1.013 2.086-.608 3.874-6.484 5.86-6.484 2.186.202 4.173 1.114 5.563 2.431 3.874 3.546 11.821 2.432 16.788 2.736 6.358.405 12.815.608 19.172.912 5.464.303 10.828 0 16.192.202.894 0 2.185.203 3.775.405v-6.484c.298-4.863.596-9.624.496-14.386v-14.995c0-.81.596-2.735 0-3.444-.993-1.317-2.185-1.115-4.569-1.419-1.987-.202-9.437-.405-10.43-1.519 1.788-1.52 7.35-1.317 9.635-2.533s1.59-1.824.596-3.647c-1.192-2.128-2.98-2.128-.894-4.256.993-.911 1.987-1.925 2.782-3.039.695-1.114.198-2.837 1.192-3.85 1.788-1.925 3.079-1.013 3.079-3.445 0-2.431 1.192-4.559 1.49-6.889.596-5.167-.795-10.334-1.192-15.501-.199-3.85-.795-7.7-1.391-11.55-.794-4.457-.198-8.814-.596-13.272-.198-2.33-1.192-3.242-3.377-4.964-1.689-1.418-2.782-3.242-2.98-5.268-.497-2.331-.497-4.661.099-6.991.398-1.114.695-2.229.795-3.343 0-.912-.894-2.432 0-3.141 1.589-1.418 4.669-.709 5.662-2.533.993-1.823-.397-4.559-.397-6.484 0-4.863 3.576-9.422 3.079-14.386a43.69 43.69 0 0 1-.298-12.462l.298-1.216h.397c0-1.519 0-2.938.199-4.458-.199-1.722.894-3.951.298-5.369z" fill="#D4C8AD"/></svg>