<svg viewBox="0 0 280 4" preserveAspectRatio="none" fill="none" xmlns="http://www.w3.org/2000/svg"><path d="M2.45708 3.59999L37.5428 3.59999C39.8857 3.59999 42.2285 3.47999 44.5142 3.45999L56.9714 3.45999C62.3428 3.57999 67.7142 3.97999 73.0856 3.99999C82.9142 3.99999 92.6857 3.83999 102.514 3.83999C112.343 3.83999 120.914 3.37999 130.057 3.13999C142.171 2.65999 154.4 2.73999 166.4 3.39999C171.029 3.63999 175.657 3.73999 180.343 3.65999C192.971 3.65999 205.6 3.81999 218.229 3.43999C230.857 3.05999 244.914 3.99999 258.229 3.77999C261.657 3.77999 265.086 3.63999 268.514 3.63999C269.829 3.63999 271.2 3.79999 272.514 3.81999C273.829 3.83999 276.571 3.81999 278.686 3.81999L280 1.75999C279.657 0.53999 278.4 0.21999 277.029 0.0799902C275.943 -0.0400098 274.8 -0.0400098 273.714 0.0799902C263.429 1.37999 253.143 0.85999 242.914 0.91999C226.114 0.91999 209.371 1.51999 192.571 1.73999C181.771 1.81999 171.029 1.39999 160 1.21999C157.314 1.05999 154.571 0.99999 151.829 1.05999C136.686 1.79999 121.371 2.01999 106.114 1.71999C85.9999 1.65999 65.8857 1.63999 45.7142 1.65999C34.2857 1.67999 22.8571 1.95999 11.4285 1.95999C8.39994 1.93999 5.42851 2.07999 2.51422 2.33999C-2.28578 2.83999 1.02851 3.61999 2.45708 3.59999Z" fill="white"/></svg>
