<svg viewBox="0 0 280 4" preserveAspectRatio="none" fill="none" xmlns="http://www.w3.org/2000/svg"><path d="M277.543 0.40001L242.457 0.400007C240.114 0.400006 237.771 0.520006 235.486 0.540006L223.029 0.540005C217.657 0.420004 212.286 0.0200036 206.914 3.14805e-06C197.086 2.28881e-06 187.314 0.160002 177.486 0.160001C167.657 0.16 159.086 0.619999 149.943 0.859998C137.829 1.34 125.6 1.26 113.6 0.599995C108.971 0.359995 104.343 0.259994 99.6572 0.339994C87.0286 0.339993 74.4001 0.179992 61.7715 0.559991C49.1429 0.939989 35.0858 -1.13968e-05 21.7715 0.219987C18.3429 0.219987 14.9143 0.359986 11.4857 0.359986C10.1715 0.359986 8.80005 0.199986 7.48578 0.179986C6.17148 0.159986 3.42862 0.179986 1.31433 0.179985L6.11899e-05 2.23999C0.342926 3.45999 1.60007 3.77999 2.9715 3.91999C4.05719 4.03999 5.20004 4.03999 6.28577 3.91999C16.5715 2.61999 26.8572 3.13999 37.0858 3.07999C53.8858 3.07999 70.6286 2.47999 87.4286 2.25999C98.2286 2.17999 108.971 2.59999 120 2.78C122.686 2.94 125.429 3 128.171 2.94C143.314 2.2 158.629 1.98 173.886 2.28C194 2.34 214.114 2.36 234.286 2.34001C245.714 2.32001 257.143 2.04001 268.571 2.04001C271.6 2.06001 274.571 1.92001 277.486 1.66001C282.286 1.16001 278.971 0.38001 277.543 0.40001Z" fill="white"/></svg>
