<svg xmlns="http://www.w3.org/2000/svg" fill="none" viewBox="0 0 355 6"><g clip-path="url(#clip0_125_1096)"><path fill="#E9E5D2" d="M214.641 2.24c.105.13.264.47.394.45 1.638-.22 3.289.49 4.943-.42.785-.43 1.769-.27 2.677-.51 1.797-.48 3.677-.56 5.521-.6 4.074-.08 8.151.03 12.225-.05 2.051-.04 4.096-.4 6.147-.49 2.102-.09 4.216.11 6.312-.07 1.295-.11 2.489.36 3.696.64 2.232.52 2.8.66 5.378-.05.391-.11.813-.01 1.22-.01 1.562 0 3.143.2 4.683-.04 6.185-.95 12.389-.3 18.581-.5 2.492-.94 5.048-.41 7.572-.53 1.702-.08 3.363.03 4.992.97 1.133.65 5.327.94 6.315.59.962-.34 1.864-.96 2.676-1.39.772.13 1.464.34 2.156.35 3.601.03 7.202-.03 10.799.04 1.305.02 2.604.38 3.908.48.413.03.839-.28 1.315-.46 1.448 1.06 3.27-.24 4.61.63 1.686 1.1 3.071-.7 4.588-.05.169.23.343.48.524.73-1.244.83-2.553.79-3.864.78-4.007-.02-8.014-.06-12.021.02-1.667.03-3.239-.75-4.928-.61-1.717.13-3.368.85-5.131.63-1.682-.2-3.394-.07-5.089-.02-.356.01-.724.53-1.051.47-.708-.12-1.251.5-1.874.53-.549.03-1.101-.37-1.667-.47-.466-.08-.949-.02-1.425-.02-12.428 0-24.858.04-37.286-.03-3.203-.02-6.391-.6-9.611-.58-1.743.01-3.391.75-5.131.63-1.692-.12-3.454-.39-5.077.07-2.14.61-4.248.34-6.366.42-2.105.08-4.21-.02-6.315.03-1.985.05-3.937.84-5.944.52-1.381.96-2.873.46-4.315.51-1.854.07-3.651.79-5.537.6-1.889-.19-3.848.3-5.69-.14-2-.47-3.972-.38-5.957-.43-2.035-.05-4.115-.35-6.102.06-4.429.89-8.89.73-13.282.34-6.201-.52-12.389-.26-18.58-.37-6.179-.1-12.361 0-18.54-.05-.962-.01-1.924-.35-2.889-.5-.899-.14-1.791.12-2.712-.47-.603-.38-1.479-.19-2.213-.05-1.686.31-3.27-.58-4.928-.56-1.628.02-3.33.39-4.87-.1-1.807-.57-3.572-.33-5.35-.41-1.832-.09-3.715-.37-5.49.05-3.62.87-7.236.19-10.843.46-2.356-.91-4.775-.46-7.166-.52-2.375-.06-4.788-.35-7.122.07-3.01.53-6.004.39-9.008.44-3.054.05-6.112.01-9.17.01-.454 0-.873.25-1.289.4-1.33.45-2.626 1.2-4.143.22-1.245-.81-6.728-1.11-8.135-.53-1.203.49-2.213.18-3.356-.02-1.467-.26-3.02-.34-4.47-.01-3.544.8-7.094.28-10.637.5-.896.06-1.74.73-2.686.51-.905-.21-1.858.35-2.744-.36-.797-.63-1.762.14-2.67-.63-.568-.48-1.654-.33-2.365.02-.991.5-1.813.52-2.794.01-.588-.3-1.423-.39-1.982-.07-2.041 1.16-4.004.35-5.924-.31-.75-.26-1.594-.5-2.115-.18-1.124.69-2.223.34-3.328.43-.946.08-1.902-.04-2.85.03-.88.07-1.661-.19-2.385-.82.336-.23.676-.45 1.178-.79 2.044 0 4.28.03 6.518-.02.632-.01 1.334.37 1.899-.47.117-.17.616.06.927.15.241.07.47.33.705.33 1.765.01 3.467.51 5.166 1.07.32.11.733.17 1.006-.01 1.404-.89 2.883-.46 4.325-.49 3.124-.07 6.248-.05 9.373-.01 2.737.03 5.435-.92 8.185-.54.88-.8 1.994-.28 2.956-.99.569-.42 1.46-.08 2.207-.08 1.289 0 2.629-.29 3.86.06 3.001.85 6.05-.04 8.999.56 2.95.61 5.874.33 8.808.42 2.988.1 6.007.38 8.957-.07 3.76-.56 7.537.07 11.24-.54 4.375-.73 8.725-.26 13.084-.4 4.411-.15 8.856-.43 13.234.09 3.563.43 7.097.21 10.64.4 1.721.09 3.375-.75 5.131-.57 1.756.19 3.578.39 5.283-.03 3.617-.88 7.233-.3 10.843-.43 3.665-.13 7.338-.16 10.999.03 1.429.07 2.832.86 4.251 1.32 1.229.39 2.493.62 3.671 1.27.114.06.273.03.403.01 1.064-.22 2.048-.83 3.229-.34.981.41 2.109.41 3.156.31 1.915-.18 3.807-.72 5.741-.5 1.587-1.03 3.283-.41 4.925-.51 1.695-.1 3.454-.39 5.077.08 1.603.46 3.206.03 4.727.49 3.071.92 6.147.21 9.214.49.508.04 1.064-.29 1.518.38.127.19.515.19.756.12.937-.26 1.848-.6 2.994-1Zm136.314-.58c-1.61.08-3.258-.07-4.744 1.25-.324.29-.924.26-1.397.26h-4.664c-.184 0-.375-.71-.568-.97.069-.1.139-.39.222-.4.695-.11 1.47.24 1.965-.47.699.15 1.381.51 1.927.3.486-.19.934-.49 1.467-.48 1.88.04 3.763.05 5.643.1.057 0 .104.27.149.41ZM8.01 3.11c-2.66 0-5.048.01-7.438-.02-.147 0-.286-.35-.572-.72 1.397-.29 2.69-.15 3.966-.13 1.286.01 2.638-.42 4.045.87Zm342.808-1.32c1.293-.28 2.439-.53 3.515-.76.276.36.464.61.667.87-.302.25-.581.61-.908.71-1.143.34-2.242.23-3.274-.82Z"/><path fill="#A1A39E" d="M162.496 3.35c-.041-.13-.108-.47-.159-.45-.66.22-1.33-.49-1.997.42-.318.43-.714.27-1.08.51-.727.48-1.485.56-2.232.6-1.644.08-3.292-.03-4.937.05-.829.04-1.654.4-2.483.49-.851.09-1.702-.11-2.549.07-.524.11-1.007-.36-1.493-.64-.902-.52-1.13-.66-2.172.05-.158.11-.327.02-.492.02-.632 0-1.27-.2-1.892.04-2.499.95-5.004.29-7.506.5-1.007.94-2.038.41-3.061.53-.689.08-1.359-.03-2.016-.97-.457-.65-2.153-.94-2.55-.59-.387.34-.752.96-1.079 1.39-.311-.13-.591-.34-.87-.35-1.454-.03-2.909.03-4.363-.04-.527-.02-1.051-.38-1.578-.48-.165-.03-.34.28-.53.46-.584-1.06-1.321.24-1.861-.63-.679-1.1-1.241.7-1.854.05l-.213-.73c.502-.83 1.032-.79 1.562-.78 1.62.02 3.239.06 4.855-.02.673-.03 1.308.75 1.991.61.692-.13 1.362-.85 2.073-.63.68.2 1.372.07 2.058.02.143-.01.292-.53.425-.47.286.12.505-.5.759-.53.222-.03.445.37.673.47.188.09.384.02.575.02 5.02 0 10.043-.04 15.063.03 1.295.02 2.581.6 3.883.58.705-.01 1.368-.75 2.073-.63.683.12 1.397.39 2.051-.07.864-.61 1.715-.34 2.572-.42.851-.08 1.702.02 2.553-.03.803-.05 1.591-.84 2.4-.52.559-.96 1.162-.46 1.743-.51.75-.07 1.477-.79 2.239-.6.762.19 1.556-.3 2.299.13.809.47 1.603.38 2.406.43.823.05 1.661.35 2.468-.06 1.79-.89 3.591-.72 5.365-.34 2.506.54 5.004.28 7.506.39 2.496.1 4.995 0 7.491.05.39.01.777.35 1.165.5.365.14.724-.12 1.095.47.245.39.597.19.892.05.68-.31 1.321.58 1.991.56.657-.02 1.346-.39 1.969.09.73.57 1.441.33 2.162.41.74.09 1.502.37 2.216-.05 1.461-.87 2.925-.19 4.382-.46.952.91 1.927.46 2.896.52.959.06 1.933.35 2.876-.07 1.216-.53 2.426-.39 3.639-.44 1.235-.05 2.47-.01 3.705-.01.184 0 .353-.25.521-.4.537-.45 1.061-1.2 1.673-.22.502.81 2.718 1.11 3.287.53.485-.49.895-.18 1.355.02.594.26 1.22.34 1.807.01 1.432-.8 2.867-.28 4.296-.5.362-.06.702-.73 1.086-.51.365.21.749-.35 1.108.36.324.63.711-.14 1.079.62.229.48.667.33.956-.02.4-.5.734-.52 1.127-.01.238.3.575.39.8.08.826-1.16 1.62-.35 2.395.31.301.26.644.5.854.19.454-.69.898-.34 1.343-.43.384-.08.768.04 1.152-.03.356-.07.67.19.962.82-.136.23-.273.45-.476.79-.825 0-1.73-.03-2.632.02-.254.02-.54-.37-.769.47-.047.17-.247-.06-.374-.15-.099-.07-.191-.32-.286-.33-.714-.01-1.4-.51-2.086-1.07-.13-.11-.295-.16-.406.01-.566.89-1.166.45-1.747.49-1.26.07-2.524.05-3.784.01-1.105-.03-2.198.92-3.306.54-.355.8-.806.28-1.194.99-.228.42-.59.08-.892.08-.521 0-1.063.29-1.559-.06-1.213-.85-2.441.04-3.635-.56-1.194-.61-2.372-.33-3.56-.42-1.206-.1-2.425-.37-3.619.07-1.518.56-3.045-.07-4.541.55-1.768.73-3.524.26-5.286.4-1.781.15-3.579.43-5.347-.09-1.438-.43-2.867-.21-4.299-.4-.696-.09-1.365.75-2.074.57-.708-.19-1.444-.38-2.133.03-1.461.88-2.921.3-4.382.43-1.479.13-2.965.16-4.442-.03-.578-.07-1.143-.86-1.718-1.32-.495-.39-1.006-.62-1.482-1.27-.048-.07-.111-.03-.162-.01-.432.22-.829.83-1.305.34-.397-.41-.851-.4-1.273-.31-.772.18-1.537.72-2.321.5-.642 1.03-1.328.41-1.991.51-.686.1-1.397.39-2.051-.08-.648-.46-1.296-.03-1.912-.49-1.238-.92-2.483-.21-3.721-.49-.206-.04-.429.29-.613-.39-.051-.19-.209-.19-.305-.12-.39.24-.759.58-1.222.98Zm-55.066.58c.651-.08 1.315-.27 1.915-1.58.13-.29.371-.59.562-.59h1.883c.076 0 .149 1.05.228 1.31-.028.1-.057.55-.092.57-.282.12-.594-.15-.794.56-.282-.15-.558-.47-.778-.26-.196.19-.377.51-.593.5-.759-.04-1.518-.04-2.28-.09-.016-.02-.035-.28-.051-.42Zm138.54-1.44c1.073 0 2.038-.01 3.007.02.057 0 .114.35.231.72-.565.29-1.086.15-1.603.13-.521-.02-1.067.41-1.635-.87ZM107.484 3.8c-.524.28-.984.53-1.419.77-.111-.36-.188-.61-.27-.87.121-.24.235-.61.365-.71.464-.35.905-.24 1.324.81Z"/></g><defs><clipPath id="clip0_125_1096"><path fill="#fff" d="M0 0h355v5.59H0z"/></clipPath></defs></svg>