<svg xmlns="http://www.w3.org/2000/svg" viewBox="0 0 18 1200.01"  fill="#D3C8AC" preserveAspectRatio="none"><path d="M18,0H2.32L2.4,1.34c-.19,10.7-.51,21.37-.48,32.1V54.82a29.65,29.65,0,0,0,0,4.91c.49,1.84,1.07,1.63,2.21,2,.36.11,1.09.22,1.87.4v4.22a3.42,3.42,0,0,0-1.47,1.18c-1.07,1.65-.8,2.6-.27,5.25.6,3,1.43,3.06.43,6A35.46,35.46,0,0,0,3.39,83c-.34,1.63-.11,4.1-.56,5.51-.89,2.72-1.5,1.49-1.5,4.95,0,3.3-.59,6.52-.71,9.83-.25,6.88.3,13.59.52,20.43.19,5.89.32,11.79.7,17.65.41,6.54.12,13,.31,19.49A16.05,16.05,0,0,0,3.78,168a23.18,23.18,0,0,1,1.43,7.49,58.05,58.05,0,0,1-.06,9.92c-.15,1.6-.36,3.19-.38,4.82,0,1.25.45,3.42,0,4.49-.8,2-2.26,1-2.75,3.68s.18,6.39.17,9.22c0,7-1.74,13.51-1.48,20.59.22,6.07.48,11.7.16,17.79a14.22,14.22,0,0,1-.15,1.69H.52c0,2.11,0,4.2-.09,6.34s-.63,5.35-.35,7.43c.45,3.34,4,4.37,6,6.14v1.1a18.3,18.3,0,0,0-3.22,2.59c-1.45,1.78-1.31,4-1.29,6.76,0,7.15.76,14.11.87,21.22.22,13.61.65,27.13.46,40.76-.19,13.29.16,26.89-.71,40.12-.21,3.24-.32,6.65-.8,9.82-.41,2.72-1.42,4.16.44,5.25C3.17,396,5,396,6,398l.09.2v6.88c-1.35.58-3.61.32-4.08,2.36-.24,1,.42,3.28.49,4.42a57.4,57.4,0,0,1,0,6c-.07,3.75-.75,6,1.61,7.24.63.34,1.29.63,1.93,1v4.38c-.59.33-1.18.69-1.76,1-1.76,1-1.91,1-2,4.16a175.44,175.44,0,0,0,.32,18.29c1.23,13.32.21,26.12-.28,39.43-.22,5.83-.51,11.66-.66,17.49-.16,6.24-.85,13.08.39,19a50.87,50.87,0,0,1,.72,7.41,35.14,35.14,0,0,1,.12,4.31,23.25,23.25,0,0,0-.49,3.3c.28,2.26,3.07,4,3.07,6.07a17.25,17.25,0,0,1-1.18,5.79C2.65,560.7,3.15,569,3.06,574l-.19,8.52H2.06c0,4.74-.67,9.19-.93,13.88A161.62,161.62,0,0,0,1.36,613l.06,1.49c.45,9.88.7,20,.8,29.84,0,2.92.07,5.82.15,8.74,0,1.79-.27,5.06.51,6.39.9,1.53,3,.46,2.73,3.36-.18,2.1-1.73,4.24-2.5,5.68-1.09,2-.85,3.91-.77,6.54.07,2.36-.3,6.14.15,8.35.42,2,2.34,1.84,3.54,2.24v2.84l-.28.08c-.73.26-2.08.41-2.68,1.2s-.49,2.13-.48,3.57c0,6.6,1.11,13.2,1.61,19.76.13,1.71,1.18,5.57.8,6.78-.26.83-1.21,1.22-1.54,2.19A16.38,16.38,0,0,0,3,726.53c-.1,2.94-.07,5.67-.33,8.61-.29,3.33.27,3.42,2,4.58-1.35,2.36-2.78,4.42-3.11,8-.17,1.91.18,3.84.12,5.77s-.17,3.58-.17,5.4c0,4.51.1,9,.32,13.52a79.19,79.19,0,0,1,.11,12l-.09,1H1.77v1c0,5.87.6,11.73.7,17.59.12,7.17-.28,14.39-.44,21.56-.3,13.19.4,26.59.58,39.79,0,3.29-.17,5.8.94,8.42s.85,4.71.87,7.83c0,2.64,0,5.3.1,7.94a30.35,30.35,0,0,1,.18,4c-.29,2.18-.25.9-1.16,1.79-.48.47-.56-.33-.93.58-.3.75,0,3.29,0,4.15,0,2.76,0,5.53.13,8.28s0,5,1.2,6.65A13.88,13.88,0,0,0,6,917.34v7.3L4.7,925c-1.5.36-1.6,0-2,2.29-.56,3.18-.08,8-.14,11.31C2.34,951,2.47,963.5,1.89,976c-.15,3.16-.09,6.36-.09,9.52,0,4,0,4.37,2.14,6.09A12,12,0,0,1,6,993.45v3.81a17.94,17.94,0,0,0-2.25,3.16c-1.32,3.65-.86,9.78-1,14-.3,7.23,0,14.5-.26,21.75-.21,5.89-.55,11.55-.57,17.46,0,3,.51,6.34.45,9h.1c.23,5.2.82,10.34,1,15.57q.36,10.4.58,20.82.12,5.59.12,11.19c0,2.44-.47,5.58-.3,7.92.15,2.1,1.33,3.6,2.17,5.35v6.68c-.32.56-.7,1.11-1.08,1.75-1.5,2.5-2,3.13-1.92,6.6s-.26,6.92-.4,10.36c-.28,7.17-.1,14.4-.11,21.59,0,8.59-.22,17.15-.39,25.71l.06,3.84,15.75-.07Z" /></svg>