<svg xmlns="http://www.w3.org/2000/svg" viewBox="0 0 937.22 3.15" width="100%" height="100%" preserveAspectRatio="none" fill="#323335"><path d="M919.51.7c-2.23.13-4.51.11-6.77.1q-9.45,0-18.9-.08c-5.23,0-10.49.08-15.69-.12-10.68-.41-21.28-.57-32,0-10.25.53-20.65.44-31,.48-14.15.05-28.3,0-42.46,0-5.46,0-10.93.11-16.39.08-3.56,0-7.11-.25-10.67-.26-5.83,0-11.65.09-17.48.08C717,.91,705.79.81,694.61.83q-29.08.06-58.17.25c-14.86.09-29.72.36-44.57-.33-2.7-.12-5.45.1-8.19.14-10.46.16-20.92.5-31.37.44C536,1.23,519.77.9,503.48.9c-9.95,0-20,.42-29.88-.5a16.2,16.2,0,0,0-2.38,0A7.15,7.15,0,0,0,469.6.1a17.93,17.93,0,0,0-3.21-.05c-10,1-20.05.58-30.06.58-16.39,0-32.75.38-49.13.51-10.52.08-21-.29-31.56-.47-2.75,0-5.52-.3-8.23-.16-14.94.78-29.88.48-44.84.39Q273.32.73,244.06.66c-11.24,0-22.49.1-33.73.12C204.46.8,198.6.68,192.74.71c-3.58,0-7.15.28-10.73.3-5.5,0-11-.09-16.49-.08-14.24,0-28.47.13-42.71.08-10.4,0-20.86.07-31.17-.52a317.39,317.39,0,0,0-32.2,0C54.19.74,48.91.62,43.64.65c-6.34,0-12.67.09-19,.1-2.27,0-4.56,0-6.81-.11A176.35,176.35,0,0,0,0,.82,6.84,6.84,0,0,0,1,1c19.85.26,39.69.56,59.54.74,8,.07,16-.2,24-.15,14,.09,28,.42,42,.46,9.8,0,19.64-.6,29.4-.33,13.16.36,26.31.36,39.46.48,4.9,0,9.8-.09,14.71-.09,8.61,0,17.23.05,25.84.06,2.27,0,4.54-.09,6.81-.09,4.06,0,8.12,0,12.17.05,5.26.12,10.5.46,15.76.49,9.57.06,19.15-.07,28.72,0,9,0,17.92-.32,26.88-.49,11.82-.23,23.68-.38,35.5.34,4.5.27,9.08.24,13.62.25,12.32,0,24.66.21,37-.07,13.07-.29,26,.55,39.08.41,3.34,0,6.68-.09,10-.09,1.31,0,2.61.13,3.92.16l3.29,0,0,0h2.72l3.27,0c1.3,0,2.6-.14,3.89-.14,3.32,0,6.64,0,10,.07,13,.12,25.86-.63,38.85-.38,12.23.24,24.5.07,36.75,0,4.52,0,9.07,0,13.54-.23,11.75-.64,23.54-.52,35.29-.32,8.91.15,17.8.45,26.73.42,9.52,0,19,.08,28.55,0,5.22,0,10.44-.34,15.66-.45,4-.08,8.06-.06,12.09-.05,2.26,0,4.52.08,6.77.08,8.56,0,17.12-.06,25.69-.07,4.87,0,9.75.12,14.62.08,13.08-.11,26.15-.12,39.23-.45,9.71-.24,19.49.31,29.23.28,13.91,0,27.81-.34,41.72-.43,8-.05,15.92.19,23.88.12,19.73-.17,39.46-.45,59.19-.69a7.51,7.51,0,0,0,.95-.17C931.12.66,925.34.36,919.51.7Z"/></svg>